<svg xmlns="http://www.w3.org/2000/svg" width="1015" height="1033" viewBox="0 0 1015 1033"><g><g clip-path="url(#clip-766EF56A-C93C-49B5-84F2-F7B562F2F022)" opacity=".48"><path fill="#b2b2b2" d="M472.43 926.903c-89.512-52.273-154.252-66.66-211.381-79.343-63.117-14.005-112.97-25.088-170.598-82.647C29.32 703.853 9.02 615.696 2.766 552.517c-6.942-70.004-.634-147.29 16.87-206.77 18.152-61.694 81.746-101.937 143.24-140.853 27.467-17.403 55.861-35.38 80.048-55.093 12.56-10.238 25.305-21.286 37.634-31.988C347.084 60.166 415.874.55 520.771.55c1.159 0 2.318 0 3.477.02 90.182 1.138 140.144 56.762 188.464 110.554 19.98 22.227 40.627 45.223 63.955 64.323 18.548 15.19 37.198 29.284 55.22 42.894 60.798 45.952 113.305 85.63 134.355 145 26.076 73.568 53.031 149.62 48.19 275.95-.86 22.254-.764 47.288-.641 73.806.538 121.555 1.193 272.857-93.066 302.031-37.49 11.6-77.048 17.472-117.546 17.472-99.4 0-210.672-35.557-330.748-105.697zm-190.806-807.92c-12.357 10.702-25.124 21.777-37.7 32.028-24.298 19.807-52.765 37.821-80.298 55.23-61.233 38.781-124.575 78.865-142.54 139.921-13.47 45.775-24.968 123.98-16.814 206.18 6.244 62.93 26.427 150.683 87.204 211.406 57.275 57.212 106.936 68.24 169.8 82.185 57.303 12.725 122.235 27.147 212.058 79.595 119.86 70.02 230.891 105.523 330.022 105.523 40.333 0 79.731-5.855 117.062-17.408 93.024-28.79 92.355-179.406 91.83-300.435-.116-26.54-.232-51.61.634-73.917 4.838-126.052-22.074-201.987-48.112-275.442-20.873-58.882-73.215-98.42-133.807-144.216-18.061-13.631-36.73-27.74-55.317-42.98-23.46-19.2-44.168-42.259-64.195-64.54-50.302-55.992-97.8-108.876-187.228-110.007-1.153-.007-2.313-.007-3.46-.007-104.268 0-172.823 59.42-239.14 116.885z"/></g></g></svg>