<svg xmlns="http://www.w3.org/2000/svg" width="615" height="614" viewBox="0 0 615 614"><g><g><path fill="#b2c9cf" d="M133.432 0l-5.063 8.648h-.743L122.568 0H120l6.805 11.734V19h2.39v-7.266L136 0z"/></g><g><path fill="#b2c9cf" d="M253.432 0l-5.058 8.648h-.748L242.568 0H240l6.81 11.734V19h2.39v-7.266L256 0z"/></g><g><path fill="#b2c9cf" d="M372.428 0l-5.057 8.648h-.748L361.573 0H359l6.808 11.734V19h2.39v-7.266L375 0z"/></g><g><path fill="#b2c9cf" d="M612.432 0l-5.063 8.648h-.743L601.568 0H599l6.81 11.734V19h2.385v-7.266L615 0z"/></g><g><path fill="#b2c9cf" d="M492.432 0l-5.063 8.648h-.749L481.568 0H479l6.81 11.734V19h2.385v-7.266L495 0z"/></g><g><path fill="#b2c9cf" d="M732.428 0l-5.057 8.648h-.742L721.572 0H719l6.814 11.734V19h2.384v-7.266L735 0z"/></g><g><path fill="#b2c9cf" d="M127.626 129.648h.743l5.063-8.648H136l-6.81 11.74V140h-2.385v-7.26L120 121h2.568z"/></g><g><path fill="#b2c9cf" d="M247.626 129.648h.748l5.058-8.648H256l-6.805 11.74V140h-2.385v-7.26L240 121h2.568z"/></g><g><path fill="#b2c9cf" d="M366.626 129.648h.748l5.058-8.648H375l-6.805 11.74V140h-2.385v-7.26L359 121h2.568z"/></g><g><path fill="#b2c9cf" d="M606.626 129.648h.748l5.058-8.648H615l-6.805 11.74V140h-2.385v-7.26L599 121h2.568z"/></g><g><path fill="#b2c9cf" d="M486.626 129.648h.748l5.058-8.648H495l-6.805 11.74V140h-2.385v-7.26L479 121h2.568z"/></g><g><path fill="#b2c9cf" d="M732.428 121l-5.057 8.648h-.742L721.572 121H719l6.814 11.74V140h2.384v-7.26L735 121z"/></g><g><path fill="#b2c9cf" d="M127.626 246.648h.743l5.063-8.648H136l-6.81 11.74V257h-2.385v-7.26L120 238h2.568z"/></g><g><path fill="#b2c9cf" d="M247.626 246.648h.748l5.058-8.648H256l-6.805 11.74V257h-2.385v-7.26L240 238h2.568z"/></g><g><path fill="#b2c9cf" d="M366.626 246.648h.748l5.058-8.648H375l-6.805 11.74V257h-2.385v-7.26L359 238h2.568z"/></g><g><path fill="#b2c9cf" d="M606.626 246.648h.748l5.058-8.648H615l-6.805 11.74V257h-2.385v-7.26L599 238h2.568z"/></g><g><path fill="#b2c9cf" d="M486.626 246.648h.748l5.058-8.648H495l-6.805 11.74V257h-2.385v-7.26L479 238h2.568z"/></g><g><path fill="#b2c9cf" d="M732.428 238l-5.057 8.648h-.742L721.572 238H719l6.814 11.734V257h2.384v-7.266L735 238z"/></g><g><path fill="#b2c9cf" d="M127.626 365.648h.743l5.063-8.648H136l-6.81 11.74V376h-2.385v-7.26L120 357h2.568z"/></g><g><path fill="#b2c9cf" d="M247.626 365.648h.748l5.058-8.648H256l-6.805 11.74V376h-2.385v-7.26L240 357h2.568z"/></g><g><path fill="#b2c9cf" d="M366.626 365.648h.748l5.058-8.648H375l-6.805 11.74V376h-2.385v-7.26L359 357h2.568z"/></g><g><path fill="#b2c9cf" d="M606.626 365.648h.748l5.058-8.648H615l-6.805 11.74V376h-2.385v-7.26L599 357h2.568z"/></g><g><path fill="#b2c9cf" d="M486.626 365.648h.748l5.058-8.648H495l-6.805 11.74V376h-2.385v-7.26L479 357h2.568z"/></g><g><path fill="#b2c9cf" d="M732.428 357l-5.057 8.648h-.742L721.572 357H719l6.814 11.74V376h2.384v-7.26L735 357z"/></g><g><path fill="#b2c9cf" d="M127.626 483.648h.743l5.063-8.648H136l-6.81 11.74V494h-2.385v-7.26L120 475h2.568z"/></g><g><path fill="#b2c9cf" d="M133.432 595l-5.063 8.648h-.743L122.568 595H120l6.805 11.734V614h2.39v-7.266L136 595z"/></g></g></svg>