<svg width="655" height="668" viewBox="0 0 655 668" fill="none" xmlns="http://www.w3.org/2000/svg">
<g opacity="0.483212">
<mask id="mask0" mask-type="alpha" maskUnits="userSpaceOnUse" x="0" y="1" width="655" height="666">
<path fill-rule="evenodd" clip-rule="evenodd" d="M0 1H655V667H0V1Z" fill="white"/>
</mask>
<g mask="url(#mask0)">
<path fill-rule="evenodd" clip-rule="evenodd" d="M181.737 77.4277C173.763 84.3331 165.525 91.4804 157.409 98.0956C141.729 110.877 123.359 122.502 105.591 133.736C66.0763 158.762 25.2006 184.629 13.6068 224.03C4.91468 253.569 -2.50486 304.036 2.75707 357.08C6.78608 397.691 19.811 454.32 59.0311 493.505C95.9923 530.425 128.039 537.541 168.607 546.54C205.586 554.752 247.487 564.059 305.452 597.904C382.8 643.089 454.451 666 518.422 666C544.449 666 569.874 662.222 593.964 654.767C653.994 636.188 653.563 538.993 653.224 460.891C653.149 443.764 653.074 427.586 653.633 413.19C656.755 331.847 639.389 282.845 622.586 235.444C609.116 197.446 575.339 171.931 536.237 142.378C524.582 133.582 512.534 124.477 500.54 114.642C485.401 102.252 472.037 87.3724 459.114 72.9941C426.653 36.8615 396.001 2.73453 338.292 2.0044C337.548 2 336.799 2 336.059 2C268.773 2 224.533 40.345 181.737 77.4277ZM304.869 598.792C247.105 565.059 205.327 555.775 168.46 547.59C127.73 538.553 95.5581 531.401 58.37 494.257C18.9201 454.854 5.82004 397.964 1.78484 357.194C-2.6948 312.019 1.3756 262.145 12.6715 223.762C24.3855 183.95 65.4239 157.98 105.107 132.867C122.832 121.636 141.155 110.036 156.764 97.3146C164.869 90.7079 173.094 83.578 181.05 76.6723C223.98 39.4713 268.372 1 336.064 1C336.812 1 337.56 1 338.308 1.01319C396.504 1.74727 428.746 37.6427 459.927 72.3557C472.821 86.699 486.145 101.539 501.199 113.865C513.168 123.667 525.203 132.762 536.834 141.544C576.068 171.198 609.951 196.803 623.535 235.116C640.363 282.59 657.758 331.668 654.633 413.191C654.079 427.552 654.14 443.706 654.22 460.819C654.567 539.26 654.99 636.898 594.163 655.725C569.969 663.211 544.442 667 518.308 667C454.163 667 382.356 644.054 304.869 598.792Z" fill="#B2B2B2"/>
</g>
<path fill-rule="evenodd" clip-rule="evenodd" d="M211.299 103.174C204.101 109.409 196.657 115.864 189.319 121.84C175.153 133.399 158.551 143.902 142.5 154.076C106.794 176.671 69.8597 200.05 59.3982 235.64C51.54 262.323 44.8358 307.923 49.5842 355.864C53.2182 392.553 64.9967 443.715 100.438 479.12C133.827 512.474 162.775 518.907 199.423 527.039C232.847 534.462 270.72 542.876 323.111 573.475C393.003 614.31 457.736 635 515.532 635C539.045 635 562.021 631.585 583.789 624.853C637.986 608.062 637.599 520.236 637.295 449.66C637.229 434.193 637.158 419.571 637.669 406.568C640.488 333.035 624.794 288.773 609.615 245.958C597.44 211.623 566.923 188.57 531.588 161.864C521.064 153.913 510.18 145.689 499.34 136.805C485.663 125.606 473.594 112.163 461.907 99.1561C432.585 66.5148 404.878 35.6776 352.742 35.0132C352.073 35.0088 351.408 35 350.738 35C289.96 35 249.969 69.6566 211.299 103.174ZM322.531 574.345C270.341 543.867 232.588 535.481 199.285 528.081C162.474 519.906 133.384 513.446 99.7733 479.855C64.1113 444.241 52.2665 392.818 48.6132 355.951C44.5637 315.131 48.2434 270.045 58.4684 235.359C69.0543 199.353 106.147 175.88 142.016 153.172C158.02 143.036 174.588 132.553 188.686 121.054C196.002 115.087 203.436 108.645 210.624 102.414C249.429 68.7829 289.558 34 350.745 34C351.414 34 352.083 34 352.766 34.0132C405.392 34.6772 434.535 67.1339 462.727 98.5134C474.37 111.477 486.408 124.875 500 136.018C510.815 144.866 521.687 153.089 532.194 161.022C567.649 187.819 598.271 210.966 610.56 245.613C625.768 288.5 641.491 332.848 638.669 406.564C638.167 419.532 638.229 434.136 638.299 449.579C638.603 520.5 638.99 608.763 583.979 625.803C562.107 632.566 539.034 636 515.419 636C457.454 636 392.552 615.253 322.531 574.345Z" fill="#B2B2B2"/>
<path fill-rule="evenodd" clip-rule="evenodd" d="M232.825 129.68C226.297 135.338 219.554 141.177 212.911 146.588C200.08 157.06 185.046 166.572 170.506 175.776C138.197 196.235 104.782 217.376 95.3164 249.578C88.2071 273.732 82.1373 314.993 86.432 358.375C89.7179 391.575 100.373 437.879 132.444 469.918C162.657 500.095 188.857 505.903 222.029 513.273C252.286 519.995 286.586 527.607 334.016 555.317C397.282 592.266 455.879 611 508.195 611C529.475 611 550.265 607.916 569.972 601.813C618.997 586.643 618.645 507.161 618.368 443.303C618.306 429.29 618.249 416.051 618.698 404.286C621.262 337.753 607.052 297.667 593.309 258.919C582.297 227.869 554.683 206.997 522.713 182.842C513.181 175.64 503.323 168.182 493.501 160.131C481.11 149.994 470.173 137.811 459.597 126.042C433.063 96.506 407.986 68.616 360.824 68.0132C360.22 68.0044 359.617 68 359.009 68C304.011 68 267.817 99.357 232.825 129.68ZM333.434 556.195C286.204 528.598 252.033 521.005 221.884 514.318C188.553 506.909 162.216 501.071 131.781 470.664C99.4847 438.407 88.7676 391.847 85.4579 358.478C81.796 321.516 85.1278 280.707 94.3793 249.298C103.97 216.698 137.547 195.436 170.024 174.874C184.517 165.711 199.512 156.215 212.276 145.799C218.9 140.409 225.634 134.566 232.143 128.925C267.279 98.4793 303.611 67 359.014 67C359.626 67 360.233 67 360.845 67.0044C408.502 67.6067 434.892 96.9888 460.415 125.404C470.956 137.125 481.854 149.255 494.164 159.336C503.953 167.364 513.798 174.803 523.314 182C555.417 206.252 583.14 227.201 594.258 258.579C608.025 297.41 622.267 337.572 619.697 404.276C619.244 416.02 619.305 429.227 619.363 443.225C619.653 507.433 620.001 587.344 570.17 602.772C550.359 608.9 529.471 612 508.081 612C455.591 612 396.839 593.227 333.434 556.195Z" fill="#B2B2B2"/>
<path fill-rule="evenodd" clip-rule="evenodd" d="M256.115 155.403C250.376 160.39 244.436 165.554 238.592 170.339C227.291 179.571 214.06 187.966 201.259 196.079C172.823 214.119 143.41 232.785 135.077 261.17C128.824 282.477 123.477 318.874 127.263 357.151C130.161 386.435 139.536 427.274 167.753 455.532C194.347 482.143 217.402 487.276 246.599 493.77C273.238 499.69 303.438 506.408 345.202 530.871C400.889 563.47 452.473 580 498.52 580C517.244 580 535.527 577.271 552.87 571.9C595.989 558.522 595.677 488.421 595.431 432.103C595.373 419.729 595.329 408.05 595.725 397.66C597.977 339.01 586.029 305.205 573.383 269.411C563.691 242.025 539.375 223.61 511.215 202.29C502.825 195.938 494.158 189.379 485.522 182.287C474.617 173.342 464.987 162.591 455.674 152.207C432.32 126.141 410.259 101.533 368.767 101.009C368.231 101 367.69 101 367.153 101C318.766 101 286.913 128.659 256.115 155.403ZM344.619 531.75C303.052 507.404 272.98 500.71 246.443 494.816C217.091 488.275 193.903 483.116 167.094 456.285C138.642 427.791 129.201 386.709 126.284 357.252C123.059 324.629 125.994 288.609 134.139 260.899C142.592 232.097 172.164 213.338 200.77 195.194C213.528 187.092 226.717 178.73 237.955 169.551C243.777 164.783 249.708 159.641 255.432 154.662C286.722 127.492 319.005 99.3814 368.791 100.01C410.77 100.534 434.02 126.476 456.497 151.556C465.771 161.915 475.358 172.603 486.187 181.501C494.803 188.557 503.458 195.119 511.823 201.453C540.108 222.865 564.539 241.361 574.341 269.076C586.462 303.371 598.992 338.827 596.734 397.653C596.334 408.011 596.387 419.676 596.44 432.027C596.686 488.689 596.998 559.214 553.073 572.85C535.635 578.251 517.244 581 498.414 581C452.191 581 400.45 564.426 344.619 531.75Z" fill="#B2B2B2"/>
<path fill-rule="evenodd" clip-rule="evenodd" d="M275.242 189.436C237.1 220.471 196.829 256.572 187.305 288.886C177.009 323.755 174.245 374.81 219.547 419.986C242.193 442.556 261.07 447.12 284.982 452.916C306.712 458.175 331.342 464.129 366.384 484.562C389.56 498.079 407.982 511.129 424.239 522.628C452.438 542.582 472.809 557 495.416 557C501.157 557 506.858 556.099 512.846 554.247C557.752 540.379 565.344 476.396 567.152 429.479C569.666 364.314 566.601 320.602 557.809 295.833C550.851 276.227 529.642 263.251 507.185 249.514C495.288 242.233 482.99 234.713 472.103 225.814C461.23 216.927 453.341 205.692 445.709 194.836C431.114 174.06 417.317 154.44 384.855 154.026C383.51 154.009 382.178 154 380.864 154C335.593 154 306.972 163.603 275.242 189.436ZM423.496 523.438C407.277 511.96 388.892 498.939 365.785 485.476C330.935 465.155 306.427 459.22 284.795 453.98C260.728 448.159 241.721 443.551 218.865 420.766C173.197 375.226 175.976 323.761 186.35 288.614C195.961 256.016 236.348 219.802 274.594 188.67C307.453 161.914 336.943 152.417 384.866 153.027C417.902 153.445 431.856 173.3 446.625 194.311C454.201 205.095 462.028 216.235 472.762 225.016C483.576 233.854 495.83 241.348 507.674 248.601C530.297 262.438 551.66 275.502 558.756 295.493C567.592 320.383 570.666 364.205 568.156 429.455C567.367 449.921 565.336 480.086 556.866 505.423C547.903 532.241 533.164 548.986 513.066 555.193C506.961 557.082 501.155 558 495.293 558C472.326 558 451.844 543.504 423.496 523.438Z" fill="#B2B2B2"/>
<path fill-rule="evenodd" clip-rule="evenodd" d="M307.283 223.961C277.219 248.446 245.466 276.93 237.962 302.433C229.856 329.942 227.684 370.214 263.362 405.833C281.197 423.634 296.073 427.238 314.914 431.806C332.059 435.963 351.493 440.667 379.153 456.814C397.436 467.496 411.974 477.792 424.801 486.868C447.023 502.624 463.077 514 480.877 514C485.391 514 489.875 513.298 494.588 511.828C529.936 500.895 535.91 450.432 537.33 413.408C539.313 361.976 536.904 327.471 529.98 307.923C524.503 292.484 507.785 282.249 490.095 271.422C480.705 265.664 471.003 259.73 462.409 252.699C453.819 245.659 447.59 236.785 441.563 228.214C430.063 211.822 419.192 196.347 393.66 196.018C392.596 196.009 391.559 196 390.526 196C354.848 196 332.296 203.584 307.283 223.961ZM424.062 487.695C411.273 478.639 396.776 468.359 378.561 457.725C351.099 441.686 331.773 437.004 314.721 432.879C295.729 428.276 280.727 424.638 262.678 406.617C226.634 370.624 228.824 329.954 237.008 302.158C244.595 276.374 276.464 247.776 306.639 223.189C332.581 202.039 355.894 194.552 393.668 195.021C419.79 195.345 430.81 211.056 442.48 227.669C448.446 236.177 454.628 244.971 463.075 251.888C471.592 258.867 481.251 264.776 490.593 270.496C508.444 281.429 525.307 291.756 530.927 307.585C537.895 327.249 540.318 361.857 538.329 413.39C537.71 429.565 536.121 453.376 529.439 473.4C522.344 494.612 510.701 507.868 494.812 512.782C489.983 514.272 485.382 515 480.759 515C462.596 515 446.435 503.542 424.062 487.695Z" fill="#B2B2B2"/>
</g>
</svg>
