<?xml version="1.0" encoding="UTF-8"?>
<svg width="12px" height="13px" viewBox="0 0 12 13" version="1.1" xmlns="http://www.w3.org/2000/svg" xmlns:xlink="http://www.w3.org/1999/xlink">
    <!-- Generator: Sketch 64 (93537) - https://sketch.com -->
    <title>Path</title>
    <desc>Created with Sketch.</desc>
    <g id="Page-1" stroke="none" stroke-width="1" fill="none" fill-rule="evenodd">
        <g id="Copyrights" transform="translate(-756.000000, -480.000000)" fill="#808080">
            <path d="M762.13,492.91 C762.466,492.56 762.466,492.56 763.95,490.992 C765.322,489.55 766.218,488.388 766.918,487.142 C767.52,486.078 767.772,485.196 767.772,484.146 C767.772,482.802 767.324,481.78 766.47,481.192 C765.98,480.856 765.392,480.66 764.804,480.66 C764.3,480.66 763.712,480.8 763.376,480.982 C762.858,481.276 762.452,481.906 762.326,482.592 C762.256,483.012 762.214,483.096 762.13,483.096 C762.046,483.096 762.032,483.054 761.934,482.592 C761.822,481.962 761.458,481.374 760.982,481.038 C760.618,480.786 760.17,480.66 759.568,480.66 C758.518,480.66 757.748,481.038 757.188,481.822 C756.754,482.438 756.488,483.306 756.488,484.118 C756.488,485.49 757.174,487.114 758.546,488.92 C759.47,490.152 759.722,490.432 762.13,492.91 Z" id="Path"></path>
        </g>
    </g>
</svg>