<?xml version="1.0" encoding="UTF-8"?>
<svg width="64px" height="15px" viewBox="0 0 64 15" version="1.1" xmlns="http://www.w3.org/2000/svg" xmlns:xlink="http://www.w3.org/1999/xlink">
    <!-- Generator: Sketch 64 (93537) - https://sketch.com -->
    <title>logo_amsg</title>
    <desc>Created with Sketch.</desc>
    <g id="Page-1" stroke="none" stroke-width="1" fill="none" fill-rule="evenodd">
        <g id="Copyrights" transform="translate(-984.000000, -479.000000)" fill="#808080">
            <g id="Group" transform="translate(433.000000, 479.000000)">
                <g id="logo_amsg" transform="translate(551.000000, 0.000000)">
                    <polygon id="XMLID_8_" points="14.8769131 12.0440234 9.7535958 4.64414399 4.63027844 12.0440234 7.43845657 12.0440234 9.7535958 8.69547463 11.2327125 10.8244902 8.7460815 14.4417497 0 14.4417497 9.7535958 0.324102655 10.7825466 1.81234656 17.1920524 11.0932009 17.1920524 1.27492515 19.6786834 1.27492515 24.8663102 1.27492515 27.3529412 4.89218465 25.8738245 7.02120023 23.5586852 3.67265144 23.3871934 3.67265144 20.7505071 3.67265144 19.6786834 3.67265144 19.6786834 12.0440234 22.1438779 12.0440234 22.1438779 6.07037774 24.6305089 9.64629713 24.6305089 12.0440234 24.6305089 14.4417497 22.1438779 14.4417497 19.6786834 14.4417497 19.5071916 14.4417497 17.1920524 14.4417497 13.74078 14.4417497 12.0901715 12.0440234"></polygon>
                    <path d="M35.0043898,1.2064556 L32.7454423,1.2064556 L29.3779373,1.2064556 L27.7673914,3.61665044 L27.9138047,3.61665044 L30.4864949,3.61665044 L32.7454423,3.61665044 L32.7454423,12.0315549 L26.4705882,12.0315549 L28.0811341,14.4417497 L32.7454423,14.4417497 L35.1717193,14.4417497 L35.1717193,12.0315549 L35.1717193,6.02684529 C35.1717193,4.69708262 35.7155399,3.49198519 36.5940195,2.64010598 C37.4724991,1.76744922 38.6856376,1.22723314 40.0033569,1.22723314 L46.7801993,1.22723314 L46.8638641,1.22723314 L49.6875484,1.22723314 L49.6875484,1.22723314 L47.0939421,5.11263345 C47.7632598,5.36196395 48.3698291,5.73595971 48.8718174,6.23462071 C49.750297,7.10727746 50.2941176,8.31237489 50.2941176,9.62136002 C50.2941176,10.9511227 49.750297,12.1562201 48.8718174,13.0080993 C47.9933378,13.8807561 46.7801993,14.4209722 45.46248,14.4209722 L37.9954036,14.4209722 L39.6059495,12.0107773 L45.46248,12.0107773 C46.1317978,12.0107773 46.738367,11.7406693 47.1776068,11.3043409 C47.6168466,10.8680125 47.8887569,10.2654638 47.8887569,9.60058248 C47.8887569,8.93570114 47.6168466,8.33315243 47.1776068,7.89682405 C46.738367,7.46049567 46.1317978,7.19038763 45.4833962,7.19038763 L42.7433765,7.19038763 L45.1696535,3.57509536 L40.0242731,3.57509536 C39.3549553,3.57509536 38.7483861,3.8452034 38.3091463,4.28153178 C37.8699065,4.71786016 37.5979962,5.32040887 37.5979962,5.98529021 C37.5979962,6.65017154 37.8699065,7.25272026 38.3091463,7.68904863 C38.7483861,8.12537701 39.3549553,8.39548505 40.0242731,8.39548505 L42.0322264,8.39548505 L40.4007643,10.8264574 L40.0033569,10.8264574 C38.6647214,10.8264574 37.4515829,10.2862414 36.5940195,9.4135846 C35.7155399,8.54092785 35.1717193,7.33583042 35.1717193,6.02684529 L35.1717193,1.2064556 L35.0043898,1.2064556 Z" id="XMLID_7_"></path>
                    <path d="M50.3148977,8.24375832 C50.2941176,8.02855029 50.2941176,7.83486306 50.2941176,7.61965502 C50.2941176,5.5966995 51.1045396,3.76743121 52.4136829,2.4546622 C53.7228261,1.14189319 55.5099105,0.324102655 57.5047954,0.324102655 C58.2736573,0.324102655 59.0217391,0.453227475 59.7490409,0.689956313 C60.4763427,0.926685151 61.1620844,1.29253881 61.7647059,1.74447568 L60.3724425,3.76743121 C59.9568414,3.46613996 59.4996803,3.22941112 59.0217391,3.05724469 C58.543798,2.90659907 58.0242967,2.82051585 57.5047954,2.82051585 C56.1748721,2.82051585 54.9696292,3.35853594 54.096867,4.24088888 C53.2448849,5.10172102 52.7046036,6.30688601 52.7046036,7.64117583 C52.7046036,7.85638386 52.7253836,8.05007109 52.7461637,8.26527913 L50.3148977,8.26527913 L50.3148977,8.24375832 Z" id="XMLID_6_"></path>
                    <path d="M63.5294118,11.3008212 C63.2580645,11.6934373 62.9449715,12.0653893 62.6110057,12.3960134 C61.2960152,13.6565176 59.5009488,14.4417497 57.4971537,14.4417497 C56.1612903,14.4417497 54.9089184,14.0904617 53.8235294,13.4705416 L55.1593928,11.4867972 C55.8481973,11.8587493 56.6413662,12.0653893 57.4971537,12.0653893 C58.8330171,12.0653893 60.0436433,11.5487893 60.9203036,10.7015651 C60.9829222,10.6395731 61.0455408,10.5775811 61.1081594,10.4949251 L61.1081594,8.01524469 L57.4762808,8.01524469 L59.0834915,5.6182203 L61.0872865,5.6182203 L61.9222011,5.6182203 L63.5085389,5.6182203 L63.5085389,10.9908612 L63.5085389,11.3008212 L63.5294118,11.3008212 Z" id="XMLID_1_"></path>
                </g>
            </g>
        </g>
    </g>
</svg>