<svg xmlns="http://www.w3.org/2000/svg" width="41" height="9" viewBox="0 0 41 9"><g><g clip-path="url(#clip-9E39702C-966D-C69C-CF59-B4074051204D)"><path fill="#201600" d="M3.413.951c2.393 0 3.605 1.551 3.605 3.9 0 2.337-1.212 3.899-3.605 3.899H.497V.95zm0 6.903c1.89 0 2.61-1.376 2.61-3.003 0-1.628-.72-3.004-2.61-3.004H1.48v6.007z"/></g><g clip-path="url(#clip-9E39702C-966D-C69C-CF59-B4074051204D)"><path fill="#201600" d="M14.216 7.854v.896H8.613V.95h5.428v.896H9.596V4.26h3.582v.896H9.596v2.698z"/></g><g clip-path="url(#clip-9E39702C-966D-C69C-CF59-B4074051204D)"><path fill="#201600" d="M19.392 4.377c1.17.262 1.958.863 1.958 2.195 0 1.224-.973 2.316-2.953 2.316-1.826 0-3.017-.961-3.138-2.316h.995c.175 1.06 1.116 1.42 2.187 1.42 1.083 0 1.914-.502 1.914-1.398 0-.84-.558-1.157-1.324-1.332-.393-.087-1.158-.23-1.54-.317-1.138-.23-1.893-.842-1.893-1.977 0-1.212.984-2.163 2.745-2.163 1.618 0 2.657.852 2.832 2.108h-.995c-.186-.786-.722-1.212-1.86-1.212-.94 0-1.727.426-1.727 1.245 0 .754.667.994 1.323 1.136.339.055 1.072.208 1.476.295"/></g><g clip-path="url(#clip-9E39702C-966D-C69C-CF59-B4074051204D)"><path fill="#201600" d="M23.05 8.75h.983V.951h-.984z"/></g><g clip-path="url(#clip-9E39702C-966D-C69C-CF59-B4074051204D)"><path fill="#201600" d="M32.583 4.612V5.4c0 1.791-.918 3.495-3.277 3.495-2.36 0-3.615-1.77-3.615-4.041 0-2.294 1.278-4.041 3.637-4.041 1.628 0 2.709.83 3.015 2.173h-1.028c-.25-.786-.851-1.278-1.987-1.278-1.835 0-2.644 1.464-2.644 3.146 0 1.66.787 3.146 2.633 3.146 1.617 0 2.26-1.103 2.26-2.37v-.143h-2.413v-.874z"/></g><g clip-path="url(#clip-9E39702C-966D-C69C-CF59-B4074051204D)"><path fill="#201600" d="M40.585.951v7.8h-1.552l-3.625-6.522h-.241V8.75h-.96V.951h1.55l3.626 6.521h.24V.952z"/></g></g></svg>