<svg xmlns="http://www.w3.org/2000/svg" width="71" height="9" viewBox="0 0 71 9"><g><g><path fill="#201600" d="M6.474.625v7.8h-.983V4.862H1.133v3.561H.15V.625h.983v3.32H5.49V.626z"/></g><g><path fill="#201600" d="M15.348 4.52c0 2.24-1.268 4.042-3.64 4.042-2.384 0-3.641-1.802-3.641-4.041 0-2.24 1.257-4.042 3.64-4.042 2.373 0 3.641 1.802 3.641 4.042m-1-.004c0-1.625-.787-3.143-2.644-3.143-1.857 0-2.643 1.518-2.643 3.143 0 1.626.786 3.143 2.643 3.143 1.857 0 2.644-1.517 2.644-3.143"/></g><g><path fill="#201600" d="M20.591 4.05c1.169.263 1.955.864 1.955 2.196 0 1.224-.972 2.316-2.949 2.316-1.824 0-3.014-.961-3.135-2.316h.994c.175 1.06 1.115 1.42 2.185 1.42 1.081 0 1.911-.502 1.911-1.398 0-.84-.557-1.157-1.321-1.332-.394-.087-1.158-.23-1.54-.317-1.136-.23-1.89-.842-1.89-1.977 0-1.212.983-2.163 2.742-2.163 1.616 0 2.654.852 2.828 2.108h-.994c-.185-.786-.72-1.212-1.856-1.212-.94 0-1.726.426-1.726 1.245 0 .754.666.994 1.322 1.136.338.055 1.07.208 1.474.295"/></g><g><path fill="#201600" d="M27.485.625c1.704 0 2.643.874 2.643 2.327 0 1.474-.939 2.348-2.643 2.348H25.17v3.124h-.984V.625zm-.164 3.801c1.333 0 1.814-.557 1.814-1.464 0-.906-.481-1.463-1.814-1.463H25.17v2.927z"/></g><g clip-path="url(#clip-9E39702C-966D-C69C-CF59-B4074051204D)"><path fill="#201600" d="M31.75 8.424h.984V.625h-.984z"/></g><g clip-path="url(#clip-9E39702C-966D-C69C-CF59-B4074051204D)"><path fill="#201600" d="M40.102 1.499h-2.556v6.925h-.982V1.499h-2.578V.625h6.116z"/></g><g clip-path="url(#clip-9E39702C-966D-C69C-CF59-B4074051204D)"><path fill="#201600" d="M45.218 6.032H41.8l-.808 2.392h-1.005L42.684.625h1.66l2.709 7.8h-1.027zm-3.124-.895h2.811L43.717 1.63h-.435z"/></g><g clip-path="url(#clip-9E39702C-966D-C69C-CF59-B4074051204D)"><path fill="#201600" d="M53.626 7.496v.928h-5.364V.625h.984v6.87z"/></g><g clip-path="url(#clip-9E39702C-966D-C69C-CF59-B4074051204D)"><path fill="#201600" d="M55.128 8.424h.983V.625h-.983z"/></g><g clip-path="url(#clip-9E39702C-966D-C69C-CF59-B4074051204D)"><path fill="#201600" d="M63.487 1.499H60.93v6.925h-.983V1.499H57.37V.625h6.117z"/></g><g clip-path="url(#clip-9E39702C-966D-C69C-CF59-B4074051204D)"><path fill="#201600" d="M67.348 4.175l2.086-3.55h1.06l-2.808 4.817v2.982h-.983V5.442L63.896.625h1.06l2.086 3.55z"/></g></g></svg>