<svg xmlns="http://www.w3.org/2000/svg" width="175" height="19" viewBox="0 0 175 19"><defs><clipPath id="o5lda"><path d="M120.927.73h15.326v17.972h-15.326z"/></clipPath></defs><g><g><g><g><path fill="#221d00" d="M13.214 1.045l-4.64 7.894h-.679L3.256 1.045H.9l6.242 10.71v6.63h2.186v-6.63l6.242-10.71z"/></g><g><g><path fill="#221d00" d="M35.22 9.716c0 4.978-2.817 8.986-8.086 8.986-5.295 0-8.088-4.008-8.088-8.986 0-4.978 2.793-8.985 8.088-8.985 5.27 0 8.087 4.007 8.087 8.985m-2.21 0c0-3.618-1.75-6.994-5.877-6.994-4.13 0-5.878 3.376-5.878 6.994 0 3.62 1.749 6.995 5.878 6.995 4.128 0 5.877-3.376 5.877-6.995"/></g><g><path fill="#221d00" d="M39.23 1.045h2.308l4.736 15.106h1.215l4.735-15.106h2.26l-5.539 17.34h-4.177z"/></g><g><path fill="#221d00" d="M68.36 13.067h-7.602l-1.797 5.318h-2.235l6-17.34h3.69l6.024 17.34h-2.283zm-6.947-1.991h6.274l-2.65-7.796h-.973z"/></g><g><path fill="#221d00" d="M92.676 8.938l4.639-7.893h2.355l-6.242 10.71v6.63h-2.186v-6.63l-6.241-10.71h2.356l4.638 7.893z"/></g><g><path fill="#221d00" d="M112.814 13.067h-7.602l-1.797 5.318h-2.234l5.999-17.34h3.691l6.023 17.34h-2.283zm-6.946-1.991h6.273l-2.65-7.796h-.972z"/></g><g><g/><g clip-path="url(#o5lda)"><path fill="#221d00" d="M136.253 9.182v1.749c0 3.983-2.04 7.772-7.287 7.772-5.245 0-8.04-3.935-8.04-8.987 0-5.1 2.843-8.985 8.089-8.985 3.619 0 6.023 1.845 6.703 4.832h-2.283c-.559-1.748-1.894-2.84-4.42-2.84-4.08 0-5.877 3.253-5.877 6.993 0 3.692 1.748 6.995 5.853 6.995 3.594 0 5.027-2.453 5.027-5.27v-.316h-5.367V9.182z"/></g></g><g><path fill="#221d00" d="M154.762 16.394v1.991h-12.46V1.045h12.071v1.991h-9.884v5.368h7.966v1.991h-7.966v6z"/></g><g><path fill="#221d00" d="M168.248 1.045c3.667 0 5.707 1.87 5.707 5.051 0 2.138-.899 3.668-2.647 4.445l2.769 7.844h-2.26l-2.598-7.334c-.461.048-.947.073-1.409.073h-5.051v7.261h-2.186V1.045zm-.316 8.136c2.793 0 3.813-1.166 3.813-3.085 0-1.942-1.02-3.109-3.813-3.109h-5.173v6.194z"/></g></g></g></g></g></svg>